Coordinates
version=1
nRows=60
nColumns=12
inDegrees=yes

Units are S.I. units (second, meters, Newtons, ...)
Angles are in degrees

endheader
time	SC_y	SC_z	SC_x	AC_y	AC_z	AC_x	GH_y	GH_z	GH_yy	EL_x	PS_y
       0.0              -35.12          30.98          55.43          63.51          1.419         -8.832         -121.5          38.27          97.64          89.67          85.42
   0.02241              -35.12          30.98          55.43           63.5          1.417         -8.831         -121.4          38.27          97.64          89.66          85.42
   0.04483              -35.12          30.98          55.43           63.5          1.415         -8.831         -121.4          38.27          97.65          89.66          85.43
   0.06724              -35.11          30.97          55.43          63.49          1.412         -8.831         -121.4          38.27          97.65          89.65          85.43
   0.08965              -35.11          30.97          55.42          63.49          1.409         -8.831         -121.3          38.27          97.65          89.65          85.43
    0.1121              -35.11          30.97          55.42          63.48          1.407         -8.831         -121.3          38.28          97.65          89.64          85.44
    0.1345              -35.11          30.97          55.42          63.48          1.404         -8.831         -121.2          38.28          97.66          89.64          85.44
    0.1569               -35.1          30.96          55.42          63.47            1.4         -8.831         -121.2          38.28          97.66          89.63          85.45
    0.1793               -35.1          30.96          55.42          63.46          1.397          -8.83         -121.1          38.28          97.66          89.63          85.45
    0.2017               -35.1          30.96          55.41          63.46          1.393          -8.83         -121.1          38.28          97.67          89.62          85.45
    0.2241              -35.09          30.95          55.41          63.45          1.389          -8.83         -121.0          38.28          97.67          89.61          85.46
    0.2465              -35.09          30.95          55.41          63.44          1.385          -8.83         -121.0          38.29          97.68           89.6          85.47
     0.269              -35.08          30.95           55.4          63.43           1.38          -8.83         -120.9          38.29          97.68          89.59          85.47
    0.2914              -35.08          30.94           55.4          63.42          1.375         -8.829         -120.8          38.29          97.69          89.59          85.48
    0.3138              -35.07          30.94           55.4          63.41           1.37         -8.829         -120.7          38.29          97.69          89.58          85.49
    0.3362              -35.07          30.93          55.39           63.4          1.364         -8.829         -120.7           38.3           97.7          89.56          85.49
    0.3586              -35.06          30.93          55.39          63.38          1.357         -8.828         -120.6           38.3           97.7          89.55           85.5
     0.381              -35.05          30.92          55.38          63.37           1.35         -8.828         -120.5           38.3          97.71          89.54          85.51
    0.4034              -35.05          30.91          55.38          63.35          1.343         -8.828         -120.4          38.31          97.72          89.53          85.52
    0.4259              -35.04          30.91          55.37          63.34          1.334         -8.827         -120.2          38.31          97.73          89.51          85.53
    0.4483              -35.03           30.9          55.37          63.32          1.325         -8.827         -120.1          38.32          97.74          89.49          85.54
    0.4707              -35.02          30.89          55.36           63.3          1.315         -8.826         -120.0          38.32          97.75          89.47          85.56
    0.4931              -35.01          30.88          55.35          63.28          1.304         -8.825         -119.8          38.33          97.76          89.45          85.57
    0.5155               -35.0          30.87          55.34          63.25          1.292         -8.825         -119.6          38.33          97.77          89.43          85.59
    0.5379              -34.99          30.86          55.33          63.22          1.278         -8.824         -119.4          38.34          97.78           89.4          85.61
    0.5603              -34.97          30.84          55.32          63.19          1.263         -8.823         -119.2          38.35           97.8          89.38          85.63
    0.5827              -34.95          30.83          55.31          63.16          1.246         -8.822         -119.0          38.36          97.82          89.34          85.65
    0.6052              -34.94          30.81           55.3          63.12          1.226         -8.821         -118.7          38.37          97.83          89.31          85.67
    0.6276              -34.91          30.79          55.28          63.08          1.205          -8.82         -118.4          38.38          97.86          89.27           85.7
      0.65              -34.89          30.77          55.27          63.03           1.18         -8.819         -118.0          38.39          97.88          89.22          85.74
    0.6724              -34.86          30.75          55.25          62.97          1.152         -8.817         -117.6           38.4          97.91          89.17          85.77
    0.6948              -34.83          30.72          55.23          62.91          1.119         -8.816         -117.1          38.42          97.94          89.11          85.82
    0.7172               -34.8          30.69           55.2          62.83          1.082         -8.814         -116.6          38.44          97.98          89.04          85.87
    0.7396              -34.75          30.65          55.17          62.74          1.038         -8.811         -116.0          38.46          98.02          88.96          85.92
     0.762              -34.71          30.61          55.13          62.64         0.9876         -8.809         -115.2          38.49          98.07          88.86          85.99
    0.7845              -34.65          30.55          55.09          62.52         0.9277         -8.806         -114.4          38.52          98.13          88.75          86.07
    0.8069              -34.58          30.49          55.04          62.38         0.8565         -8.802         -113.3          38.55          98.21          88.62          86.16
    0.8293               -34.5          30.42          54.99          62.21         0.7712         -8.797         -112.1           38.6          98.29          88.46          86.28
    0.8517               -34.4          30.33          54.92           62.0         0.6679         -8.792         -110.6          38.65           98.4          88.27          86.41
    0.8741              -34.28          30.22          54.83          61.75         0.5418         -8.785         -108.8          38.71          98.52          88.03          86.58
    0.8965              -34.13          30.08          54.72          61.43         0.3861         -8.777         -106.5          38.79          98.68          87.74          86.78
    0.9189              -33.94          29.91          54.59          61.04         0.1919         -8.767         -103.7          38.89          98.87          87.38          87.04
    0.9414               -33.7           29.7          54.42          60.55       -0.05262         -8.754         -100.2          39.01          99.12          86.92          87.36
    0.9638              -33.41          29.43          54.21          59.93        -0.3635         -8.737         -95.73          39.17          99.43          86.34          87.77
    0.9862              -33.02          29.08          53.93          59.13        -0.7614         -8.716         -89.98          39.37          99.83           85.6           88.3
     1.009              -32.53          28.64          53.58          58.11         -1.272         -8.689         -82.61          39.62          100.3          84.65          88.97
     1.031               -31.9          28.07          53.13           56.8         -1.924         -8.655          -73.2          39.95          101.0          83.43          89.83
     1.053              -31.11          27.36          52.57          55.15         -2.745         -8.611         -61.36          40.36          101.8           81.9          90.91
     1.076              -30.15          26.49          51.88          53.15         -3.744         -8.559         -46.93          40.87          102.8          80.04          92.23
     1.098              -29.04          25.48          51.09          50.82         -4.903         -8.497         -30.21          41.45          104.0          77.88          93.76
     1.121              -27.83          24.38          50.23           48.3         -6.157         -8.431         -12.11          42.08          105.2          75.54          95.41
     1.143              -26.62          23.29          49.36          45.78         -7.411         -8.365            6.0          42.71          106.5           73.2          97.07
     1.165              -25.51          22.28          48.57          43.46          -8.57         -8.303          22.72          43.29          107.7          71.04           98.6
     1.188              -24.55          21.41          47.88          41.45         -9.569         -8.251          37.15           43.8          108.7          69.18          99.92
      1.21              -23.76           20.7          47.32          39.81         -10.39         -8.207          48.99          44.21          109.5          67.65          101.0
     1.233              -23.13          20.13          46.87           38.5         -11.04         -8.173           58.4          44.54          110.2          66.43          101.9
     1.255              -22.64          19.69          46.52          37.47         -11.55         -8.146          65.77           44.8          110.7          65.48          102.5
     1.278              -22.25          19.34          46.25          36.67         -11.95         -8.125          71.51           45.0          111.1          64.74          103.1
       1.3              -21.96          19.07          46.03          36.05         -12.26         -8.108           76.0          45.15          111.4          64.16          103.5
     1.322              -21.72          18.86          45.86          35.56         -12.51         -8.095          79.53          45.28          111.6           63.7          103.8
